<?xml version="1.0" encoding="utf-8"?>
<!-- Generator: Adobe Illustrator 24.0.0, SVG Export Plug-In . SVG Version: 6.00 Build 0)  -->
<svg version="1.1" id="Layer_1" xmlns="http://www.w3.org/2000/svg" xmlns:xlink="http://www.w3.org/1999/xlink" x="0px" y="0px"
	 viewBox="0 0 850.4 425.2" style="enable-background:new 0 0 850.4 425.2;fill: white;" xml:space="preserve" >
<g>
	<g>
		<path d="M142,116.3v11.3v169.9v11.3v0h11.3v0h543.7v0h11.3v0v-11.3V127.6v-11.3v0H142z M697.1,297.6H153.3V127.6h543.7V297.6z"/>
		<path d="M376.8,227.2c-0.6,0.3-1.2,0.6-1.9,0.8c-0.1,0-0.1,0-0.2,0.1c-0.5,0.1-2.2,0.5-4.6,0.3c-2.4-0.2-5.6-1.1-9.1-3.4l0,0l0,0
			l-5.5,8.4c2,1.7,4.2,2.9,6.5,3.7c2.7,1,5.7,1.5,8.9,1.5c2.6,0,5-0.3,7.3-1c2.3-0.7,4.3-1.7,6.1-3c1.7-1.3,3.1-3.1,4.2-5.1
			c1-2,1.5-4.4,1.5-7.2c0-2.9-0.6-5.2-1.7-6.9c-0.7-1.1-1.5-2-2.4-2.8c-0.6-0.5-1.2-1-1.8-1.3c-1.7-1-3.5-1.8-5.5-2.4
			c-2-0.6-3.8-1.1-5.5-1.7c-1.7-0.6-3.1-1.2-4.2-2c-1.1-0.8-1.7-1.9-1.7-3.4c0-0.9,0.2-1.7,0.7-2.4c0.5-0.7,1.1-1.2,1.8-1.6
			c0.3-0.2,0.6-0.3,0.9-0.4c0.5-0.2,1-0.4,1.5-0.5c0.4-0.1,0.7-0.1,1.1-0.2c0.1,0,0.2,0,0.3,0c0.3,0,0.7-0.1,1-0.1c0,0,0.1,0,0.1,0
			c1.3,0,2.8,0.3,4.3,0.8c1.5,0.5,2.2,0.9,4,2l0.2-0.2c0,0,0,0,0,0l0,0l0.2-0.2l5.5-8.3c-1.9-1.3-3.7-2.3-5.9-2.9
			c-2.6-0.8-5.3-1.2-8.1-1.2c-2.4,0-4.8,0.3-7.1,1c-2.3,0.7-4.3,1.7-6,3c-1.7,1.4-3.1,3-4.2,5c-1,2-1.6,4.3-1.6,7
			c0,2.7,0.6,5,1.7,6.6c0.9,1.3,2,2.4,3.3,3.3c0.3,0.2,0.6,0.5,1,0.8c1.7,1,3.6,1.8,5.6,2.4c2,0.6,3.9,1.2,5.6,1.8
			c1.7,0.6,3.2,1.3,4.3,2.2c1.1,0.9,1.7,2,1.7,3.5c0,0.9-0.2,1.7-0.7,2.3C378.1,226.3,377.5,226.8,376.8,227.2z"/>
		<polygon points="279.8,227.3 255.8,227.3 255.8,217.2 277.3,217.2 277.3,207.1 255.8,207.1 255.8,197.9 279.8,197.9 279.8,187.8 
			244.9,187.8 244.9,237.4 279.8,237.4 		"/>
		<path d="M313.8,218.1h8c2.6,0,5-0.2,7.3-0.7c2.2-0.5,4.2-1.3,5.8-2.5c1.6-1.2,2.9-2.7,3.8-4.7c0.9-2,1.4-4.4,1.4-7.3
			c0-2.9-0.5-5.4-1.5-7.3c-1-1.9-2.4-3.5-4.1-4.6c-1.7-1.1-3.7-1.9-6-2.4c-2.3-0.5-4.7-0.7-7.3-0.7h-18.4v49.5h10.9V218.1z
			 M313.8,197.1h5.6c1,0,2.1,0.1,3.2,0.2c1.1,0.1,2.1,0.4,3,0.8c0.9,0.4,1.7,1,2.2,1.8c0.6,0.8,0.9,1.8,0.9,3c0,1.2-0.2,2.1-0.7,2.9
			c-0.4,0.8-1,1.4-1.7,1.8c-0.7,0.4-1.5,0.8-2.4,0.9c-0.9,0.2-1.9,0.3-2.8,0.3h-7.3V197.1z"/>
		<rect x="412.2" y="187.8" width="10.9" height="49.5"/>
		<polygon points="476.7,227.3 456.5,227.3 456.5,187.8 445.6,187.8 445.6,237.4 476.7,237.4 		"/>
		<path d="M498,231.6c2.4,2.3,5.1,4,8.4,5.2c3.2,1.2,6.8,1.8,10.6,1.8s7.4-0.6,10.6-1.8c3.2-1.2,6-2.9,8.4-5.2
			c2.4-2.3,4.2-5,5.5-8.2c1.3-3.2,2-6.8,2-10.8s-0.7-7.6-2-10.8c-1.3-3.2-3.2-6-5.5-8.2c-2.4-2.3-5.1-4-8.4-5.2
			c-3.2-1.2-6.8-1.8-10.6-1.8s-7.4,0.6-10.6,1.8c-3.2,1.2-6,3-8.4,5.2c-2.4,2.3-4.2,5-5.5,8.2c-1.3,3.2-2,6.8-2,10.8s0.7,7.6,2,10.8
			C493.9,226.6,495.7,229.3,498,231.6z M502.9,206.2c0.7-2,1.7-3.6,3.1-5.1c1.3-1.4,2.9-2.5,4.8-3.3c1.9-0.8,4-1.2,6.3-1.2
			c2.3,0,4.4,0.4,6.3,1.2c1.9,0.8,3.5,1.9,4.8,3.3c1.3,1.4,2.4,3.1,3.1,5.1c0.7,2,1.1,4.1,1.1,6.4c0,2.3-0.4,4.5-1.1,6.4
			c-0.7,1.9-1.7,3.6-3.1,5c-1.3,1.4-2.9,2.5-4.8,3.3c-1.9,0.8-4,1.2-6.3,1.2c-2.3,0-4.4-0.4-6.3-1.2c-1.9-0.8-3.5-1.9-4.8-3.3
			c-1.3-1.4-2.4-3.1-3.1-5c-0.7-1.9-1.1-4.1-1.1-6.4C501.8,210.3,502.1,208.2,502.9,206.2z"/>
		<polygon points="571,202.1 571.1,202.1 591.9,237.4 605.7,237.4 605.7,187.8 595.2,187.8 595.2,222.3 595,222.3 574.7,187.8 
			560.5,187.8 560.5,237.4 571,237.4 		"/>
	</g>
	<path d="M620.1,174.2c3.4,0,6.2,2.8,6.2,6.2c0,3.4-2.8,6.2-6.2,6.2c-3.4,0-6.2-2.8-6.2-6.2C613.9,176.9,616.7,174.2,620.1,174.2z
		 M620.1,185.2c2.7,0,4.8-2.2,4.8-4.8c0-2.7-2.2-4.8-4.8-4.8c-2.7,0-4.8,2.2-4.8,4.8C615.3,183,617.5,185.2,620.1,185.2z
		 M619.9,180.8h-0.6v2.1h-1v-5h1.9c1.3,0,2,0.4,2,1.5c0,0.9-0.6,1.4-1.3,1.4l1.3,2.1h-1L619.9,180.8z M620.2,180c0.6,0,1-0.2,1-0.7
		c0-0.5-0.4-0.7-0.9-0.7h-1.1v1.4H620.2z"/>
</g>
</svg>
